<?xml version="1.0" encoding="UTF-8" standalone="no"?>
<!-- Created with Inkscape (http://www.inkscape.org/) -->

<svg
   width="64.353996mm"
   height="64.353996mm"
   viewBox="0 0 64.353996 64.353996"
   version="1.1"
   id="svg1"
   inkscape:version="1.3.2 (091e20e, 2023-11-25, custom)"
   sodipodi:docname="logo_capytale.svg"
   xmlns:inkscape="http://www.inkscape.org/namespaces/inkscape"
   xmlns:sodipodi="http://sodipodi.sourceforge.net/DTD/sodipodi-0.dtd"
   xmlns="http://www.w3.org/2000/svg"
   xmlns:svg="http://www.w3.org/2000/svg">
  <sodipodi:namedview
     id="namedview1"
     pagecolor="#ffffff"
     bordercolor="#000000"
     borderopacity="0.25"
     inkscape:showpageshadow="2"
     inkscape:pageopacity="0.0"
     inkscape:pagecheckerboard="0"
     inkscape:deskcolor="#d1d1d1"
     inkscape:document-units="mm"
     showgrid="false"
     inkscape:zoom="3.7241354"
     inkscape:cx="104.85655"
     inkscape:cy="43.634289"
     inkscape:window-width="1920"
     inkscape:window-height="974"
     inkscape:window-x="-11"
     inkscape:window-y="-11"
     inkscape:window-maximized="1"
     inkscape:current-layer="layer1" />
  <defs
     id="defs1" />
  <g
     inkscape:label="Calque 1"
     inkscape:groupmode="layer"
     id="layer1">
    <path
       style="opacity:1;fill:#000000;stroke-width:1.08101"
       d="M 0.00747962,32.187792 V 0.01079951 H 32.184468 64.361478 v 32.17699249 32.177 H 32.184468 0.00747962 Z m 30.45114138,3.2177 c 0.0635,-0.19664 0.16145,-1.21743 0.21784,-2.26843 0.062,-1.15654 -0.004,-1.84479 -0.16848,-1.74341 -0.14906,0.0921 -0.17788,0.0168 -0.064,-0.16739 0.11383,-0.18418 0.3213,-0.26422 0.46104,-0.17786 0.13975,0.0864 0.45262,-0.22691 0.69529,-0.69617 0.24267,-0.46925 0.4412,-0.93154 0.4412,-1.02729 0,-0.0958 -0.16088,-0.0815 -0.35752,0.0317 -0.20772,0.11954 -0.25765,0.0966 -0.11917,-0.0546 0.13109,-0.1432 0.37778,-0.26036 0.548197,-0.26036 0.17041,0 0.36945,-0.1788 0.4423,-0.39734 0.0883,-0.26487 0.01,-0.32166 -0.23487,-0.17032 -0.242647,0.14996 -0.297077,0.11335 -0.16036,-0.10789 0.11383,-0.18418 0.3122,-0.26984 0.44082,-0.19034 0.12861,0.0794 0.3929,-0.0471 0.5873,-0.28136 0.1944,-0.23423 0.61235,-0.42587 0.92878,-0.42587 0.31644,0 1.07293,0.14908 1.68109,0.33128 l 1.10575,0.33129 v 3.67296 3.67296 h 1.00106 1.00106 v -3.71823 -3.71824 h 1.4443 c 0.79436,0 1.82402,-0.19636 2.28813,-0.43637 0.47579,-0.24604 0.84385,-0.66851 0.84385,-0.96859 0,-0.41386 -0.29507,-0.57646 -1.32704,-0.7312 -1.01251,-0.15184 -1.55089,-0.0785 -2.27148,0.30961 -0.928,0.49975 -0.98651,0.49465 -3.35687,-0.293 -1.69928,-0.56465 -2.67549,-0.74383 -3.30236,-0.60615 -0.4895,0.10756 -1.14275,0.51683 -1.451707,0.90959 -0.30895,0.39278 -0.8483,1.3482 -1.19853,2.12317 -0.35025,0.77498 -0.7178,1.40905 -0.81676,1.40905 -0.099,0 -0.72857,-1.02966 -1.39912,-2.28813 -1.16075,-2.17849 -1.26619,-2.28815 -2.20022,-2.28815 -0.53958,0 -0.98105,0.0707 -0.98105,0.15721 0,0.0865 0.19854,0.54116 0.4412,1.01041 0.24267,0.46927 0.55555,0.78255 0.69529,0.69618 0.13974,-0.0864 0.34721,-0.006 0.46104,0.17785 0.12926,0.20915 0.083,0.25826 -0.12325,0.13079 -0.18162,-0.11224 -0.33021,-0.12699 -0.33021,-0.0327 0,0.0942 0.26235,0.68553 0.58301,1.31407 0.32065,0.62852 0.69788,1.07177 0.83828,0.98499 0.14041,-0.0868 0.34842,-0.008 0.46225,0.17711 0.12926,0.20914 0.083,0.25825 -0.12325,0.13079 -0.18161,-0.11224 -0.3302,-0.12701 -0.3302,-0.0328 0,0.0942 0.25742,0.67586 0.57204,1.29257 0.36193,0.70946 0.57203,1.68572 0.57203,2.6581 0,0.84525 0.0858,1.62263 0.19068,1.7275 0.10485,0.10486 0.43068,0.19068 0.72401,0.19068 0.29335,0 0.58524,-0.16089 0.64866,-0.35753 z m -1.18871,-1.78761 c 0.001,-0.94386 0.055,-1.2955 0.11866,-0.78143 0.0637,0.51408 0.0624,1.28633 -0.003,1.71611 -0.0653,0.42979 -0.11734,0.009 -0.11574,-0.93468 z m 0.86097,-0.14301 c 0,-1.02251 0.0519,-1.44081 0.11537,-0.92956 0.0635,0.51126 0.0635,1.34786 0,1.85912 -0.0635,0.51126 -0.11537,0.093 -0.11537,-0.92956 z m -1.95065,-5.14831 c -0.24405,-0.47194 -0.37937,-0.85806 -0.30072,-0.85806 0.0787,0 0.34269,0.38612 0.58673,0.85806 0.24404,0.47192 0.37936,0.85805 0.30071,0.85805 -0.0787,0 -0.34268,-0.38613 -0.58672,-0.85805 z m 2.43114,0.7485 c 0,-0.11269 0.19638,-0.58461 0.43637,-1.04873 0.24001,-0.46411 0.50073,-0.84385 0.57938,-0.84385 0.0787,0 -0.0697,0.41831 -0.32973,0.92956 -0.26001,0.51125 -0.52073,0.98318 -0.57938,1.04873 -0.0587,0.0655 -0.10658,0.0269 -0.10658,-0.0857 z m 8.512367,-1.52283 c 0.35579,-0.0684 0.87062,-0.0658 1.14408,0.005 0.27345,0.0716 -0.0176,0.12756 -0.64688,0.12439 -0.62923,-0.003 -0.85298,-0.0617 -0.4972,-0.13016 z m 2.30269,0.006 c 0.20647,-0.0826 0.45316,-0.0724 0.5482,0.0226 0.095,0.095 -0.0738,0.16263 -0.3754,0.15022 -0.33319,-0.0137 -0.40097,-0.0815 -0.1728,-0.17281 z m -7.5919,-0.57486 c 0.27828,-0.0725 0.66441,-0.0678 0.85805,0.0108 0.19364,0.0784 -0.0341,0.13768 -0.50597,0.13185 -0.47194,-0.005 -0.63037,-0.0699 -0.35208,-0.14244 z m 4.57629,0 c 0.27828,-0.0725 0.6644,-0.0678 0.85805,0.0108 0.19364,0.0784 -0.0341,0.13768 -0.50598,0.13185 -0.47193,-0.005 -0.63037,-0.0699 -0.35207,-0.14244 z m 3.90216,0.004 c 0.53532,-0.11199 0.59941,-0.20161 0.28601,-0.39999 -0.32277,-0.20432 -0.29857,-0.25655 0.12048,-0.26006 0.29282,-0.002 0.47237,0.1535 0.40662,0.35315 -0.0648,0.19663 -0.42943,0.3786 -0.81038,0.40437 l -0.69265,0.0468 z m -10.06495,-0.67803 c 0.34958,-0.36786 0.69093,-0.61164 0.75855,-0.54172 0.0676,0.0699 -0.21841,0.37089 -0.6356,0.66884 l -0.758537,0.54173 z m 7.72567,0.26494 c 0.19401,-0.19547 0.4248,-0.28334 0.51286,-0.19529 0.0881,0.0881 -0.0707,0.248 -0.35275,0.35541 -0.40763,0.15521 -0.44048,0.12236 -0.16011,-0.16012 z m -4.64302,-0.53654 c -0.37719,-0.16209 -0.4259,-0.25117 -0.14301,-0.26154 0.23596,-0.009 0.62209,0.10905 0.85805,0.26154 0.23597,0.15249 0.30032,0.27018 0.14301,0.26154 -0.15731,-0.009 -0.54343,-0.12635 -0.85805,-0.26154 z m -9.581597,-0.35752 c 0,-0.11798 0.24982,-0.21452 0.55515,-0.21452 0.30533,0 0.61482,0.0965 0.68773,0.21452 0.073,0.11798 -0.1769,0.21451 -0.55515,0.21451 -0.37826,0 -0.68773,-0.0965 -0.68773,-0.21451 z m -6.006375,8.08 v -1.71611 l 0.92955,-0.0285 c 0.51126,-0.0157 1.25133,-0.1236 1.64461,-0.23983 0.393275,-0.11623 0.686985,-0.34846 0.652685,-0.5161 -0.0343,-0.16762 0.15876,-0.47799 0.42902,-0.68971 0.44335,-0.34733 0.45302,-0.33604 0.0988,0.11557 -0.2472,0.3152 -0.27639,0.50053 -0.0788,0.50053 0.17253,0 0.51006,-0.37973 0.75006,-0.84385 0.24001,-0.46411 0.43637,-1.36304 0.43637,-1.99761 0,-0.87066 -0.20477,-1.38295 -0.83458,-2.08783 -0.80122,-0.89672 -0.93274,-0.93811 -3.289215,-1.03493 l -2.454609,-0.10085 v 5.17766 5.17767 h 0.858059 0.85805 z m -1.365992,-3.3607 -0.0641,-4.93382 1.930622,0.0551 1.93062,0.0551 -1.78076,0.1014 -1.78075,0.1014 -0.0857,4.77733 -0.0857,4.77733 z m 0.885502,3.07468 c 0,-1.02251 0.0519,-1.44081 0.11535,-0.92956 0.0635,0.51126 0.0635,1.34786 0,1.85912 -0.0635,0.51125 -0.11535,0.093 -0.11535,-0.92956 z m 2.71499,-2.19751 c 0.20647,-0.0826 0.45316,-0.0724 0.548205,0.0226 0.095,0.095 -0.0738,0.16265 -0.375395,0.15023 -0.3332,-0.0137 -0.40097,-0.0815 -0.17281,-0.17281 z m -1.87154,-0.57486 c 0.27828,-0.0725 0.66441,-0.0678 0.85805,0.0108 0.19364,0.0784 -0.034,0.13768 -0.50597,0.13185 -0.47194,-0.005 -0.63037,-0.0699 -0.35208,-0.14244 z m -0.84115,-2.23294 c 0.001,-1.10117 0.053,-1.5166 0.11488,-0.92318 0.0619,0.59342 0.0609,1.49438 -0.002,2.00213 -0.0632,0.50774 -0.11384,0.0223 -0.11258,-1.07895 z m 0.47819,0.14301 v -1.71611 h 1.22987 c 0.67644,0 1.38433,0.15445 1.573095,0.34322 0.18878,0.18877 0.36149,0.80014 0.38382,1.35859 l 0.0405,1.01536 0.21557,-1.14407 0.21558,-1.14408 -0.0416,1.14408 c -0.0229,0.62924 -0.17036,1.15486 -0.32767,1.16804 -0.15732,0.0132 -0.648355,0.17406 -1.091195,0.35752 -0.44284,0.18346 -1.11856,0.33356 -1.50159,0.33356 -0.66051,0 -0.69642,-0.0885 -0.69642,-1.71611 z m 4.362395,-0.14301 c 0.003,-0.62924 0.0617,-0.85298 0.13016,-0.4972 0.0684,0.35578 0.0658,0.87062 -0.005,1.14408 -0.0716,0.27345 -0.12757,-0.0176 -0.12439,-0.64688 z m -15.4638074,5.63846 c 0.159255,-0.15925 0.199631,-0.57288 0.08972,-0.91917 -0.145407,-0.45813 -0.285581,-0.54387 -0.514648,-0.3148 -0.173145,0.17314 -0.845816,0.3148 -1.494823,0.3148 -0.859902,0 -1.338541,-0.17457 -1.764373,-0.64354 -0.321396,-0.35394 -0.667785,-0.9964 -0.769746,-1.42768 -0.106263,-0.44942 -0.01524,-1.19145 0.213295,-1.73833 0.247962,-0.59344 0.733066,-1.09271 1.283118,-1.32054 0.676335,-0.28015 1.10074,-0.29094 1.803798,-0.0458 0.711543,0.24805 0.971159,0.23891 1.148499,-0.0404 0.126024,-0.19852 0.231099,-0.50682 0.233509,-0.68511 0.0022,-0.17829 -0.285214,-0.40177 -0.639159,-0.49663 -0.353945,-0.0948 -1.205695,-0.17421 -1.892765,-0.17637 -1.072288,-0.003 -1.406504,0.15338 -2.359643,1.10653 -1.014519,1.01451 -1.110329,1.24302 -1.109356,2.64566 7.24e-4,1.03435 0.189188,1.84379 0.577671,2.48097 0.317125,0.52015 0.992358,1.1335 1.50052,1.36297 0.535393,0.24178 1.445561,0.36886 2.164369,0.30218 0.682248,-0.0632 1.370756,-0.24537 1.53001,-0.40462 z m 2.6823154,-0.49014 c 0.395683,-0.947 0.492433,-1.00106 1.79155,-1.00106 1.287853,0 1.402969,0.0623 1.850649,1.00106 0.291441,0.61116 0.683405,1.00106 1.006368,1.00106 0.290943,0 0.601086,-0.0721 0.68921,-0.16023 0.0881,-0.0881 -0.61769,-1.96076 -1.568462,-4.16142 -0.950782,-2.20065 -1.831461,-3.89829 -1.957064,-3.77251 -0.125602,0.12576 -0.942837,1.9502 -1.816078,4.05428 -0.87323,2.10409 -1.5877044,3.87383 -1.5877044,3.93274 0,0.0589 0.263984,0.10713 0.5866334,0.10713 0.400083,0 0.71964,-0.31832 1.004898,-1.00106 z m 0.982629,-2.30235 c 0,-0.0865 0.207781,-0.559 0.461722,-1.05008 0.347426,-0.67186 0.515869,-0.79224 0.680453,-0.48633 0.120295,0.2236 0.30731,0.69614 0.415595,1.05009 0.174476,0.57029 0.09708,0.64353 -0.680443,0.64353 -0.482531,0 -0.877327,-0.0707 -0.877327,-0.15721 z m 30.92887,2.30235 c 0.35077,-0.97004 0.40827,-1.00106 1.85544,-1.00106 1.4532,0 1.50237,0.027 1.82384,1.00106 0.25665,0.77765 0.48501,1.00106 1.02324,1.00106 0.38108,0 0.69287,-0.0959 0.69287,-0.21318 0,-0.11725 -0.74008,-1.98229 -1.6446,-4.14454 -0.90454,-2.16224 -1.71612,-3.93257 -1.80352,-3.93407 -0.0873,-10e-4 -0.89299,1.76701 -1.79021,3.93002 -0.89721,2.16302 -1.63012,4.02927 -1.62869,4.14726 10e-4,0.11798 0.25168,0.21451 0.55611,0.21451 0.37297,0 0.6716,-0.32654 0.91552,-1.00106 z m 1.11526,-2.50266 c 0.005,-0.19664 0.18029,-0.6645 0.38827,-1.0397 0.20796,-0.37519 0.45695,-0.55463 0.5533,-0.39873 0.0963,0.1559 0.30458,0.62377 0.46272,1.0397 0.27093,0.71263 0.23844,0.75625 -0.56345,0.75625 -0.49551,0 -0.84674,-0.14934 -0.84084,-0.35752 z m 10.80693,2.71718 c 0.0873,-0.61531 0.002,-0.64355 -1.93062,-0.64355 h -2.02202 v -3.28921 -3.28919 h -0.71504 -0.71505 v 3.81356 c 0,2.09747 0.0905,3.90401 0.20097,4.01454 0.11053,0.11054 1.30108,0.16417 2.64566,0.11917 2.28863,-0.0765 2.45054,-0.12287 2.5361,-0.72532 z m 5.30301,0.60465 c 1.03903,-0.14241 1.32701,-0.29758 1.32701,-0.71503 0,-0.46943 -0.23935,-0.53317 -2.00213,-0.53317 h -2.00212 v -1.00104 -1.00106 h 1.7161 c 1.63983,0 1.71611,-0.0318 1.71611,-0.71505 0,-0.68326 -0.0763,-0.71504 -1.71611,-0.71504 h -1.7161 v -1.00106 -1.00106 h 2.00212 c 1.81145,0 2.00213,-0.0545 2.00213,-0.57204 0,-0.53189 -0.19068,-0.57203 -2.71717,-0.57203 h -2.71718 v 3.81356 c 0,2.09747 0.0858,3.89938 0.19068,4.00425 0.10486,0.10486 0.73045,0.19068 1.39017,0.19068 0.65972,0 1.79665,-0.0818 2.52649,-0.18188 z"
       id="path1" />
  </g>
</svg>
